# xmcd
#
# Track frame offsets:
#	180
#	7247
#	24478
#	40872
#	50255
#	62094
#	78309
#	97494
#	106290
#	116933
#	135446
#	148713
#	161638
#	178872
#	196209
#	221401
#	244269
#	256592
#	261040
#	265866
#
# Disc length: 4243 seconds
#
# Revision: 2
# Processed by: cddbd v1.5.2PL0 Copyright (c) Steve Scherf et al.
# Submitted via: audiograbber 1.83.01
#
DISCID=21109114
DTITLE=Various Artist - Please Mr. Foreman
DYEAR=1973
DGENRE=Blues
TTITLE0=Chinner Mitchel and Mack Collins - Introduction
TTITLE1=Little Junior - I Lost My Eyes on You
TTITLE2=Joe L. - Please Mr. Forman
TTITLE3=Bobo Jenkins - 24 Years
TTITLE4=One String Sam - I need $100
TTITLE5=Johny Mae Matthews - Send You Back To Georgia
TTITLE6=Washboard Wille - Wee Baby Blues
TTITLE7=Dr. Ross - Boogie Disease
TTITLE8=Boogie Woogie Red - The Viper Song
TTITLE9=Baby Boy Warren - Too Many Drivers
TTITLE10=Eddie ''Guitar'' Burns - Better Watch What You're Doing
TTITLE11=Mr. Bo - Don't Want No Woman
TTITLE12=Eddie Kirkland - I Got The Blues
TTITLE13=Bobo Jenkins - Reelin" And Rockin'
TTITLE14=Baby Boy Warren - She's Fine
TTITLE15=Boogie Woogie Red - Red's Boogie
TTITLE16=Joe L. - In the Evening
TTITLE17=One String Sam - I Got To Go
TTITLE18=The Party Makers Inc. - Move It
TTITLE19=John Sinclair by Fred Flames - Intervieuw
EXTD=YEAR: 1973
EXTT0=
EXTT1=
EXTT2=
EXTT3=
EXTT4=
EXTT5=
EXTT6=
EXTT7=
EXTT8=
EXTT9=
EXTT10=
EXTT11=
EXTT12=
EXTT13=
EXTT14=
EXTT15=
EXTT16=
EXTT17=
EXTT18=
EXTT19=
PLAYORDER=
